<svg xmlns="http://www.w3.org/2000/svg" xmlns:xlink="http://www.w3.org/1999/xlink" width="128" zoomAndPan="magnify" viewBox="0 0 96 30.000001" height="40" preserveAspectRatio="xMidYMid meet" version="1.0"><defs><clipPath id="886c33076f"><path d="M 37 6 L 66 6 L 66 29 L 37 29 Z M 37 6 " clip-rule="nonzero"/></clipPath><clipPath id="756936ed92"><path d="M 43.917969 0.871094 L 65.773438 6.21875 L 59.046875 33.714844 L 37.191406 28.367188 Z M 43.917969 0.871094 " clip-rule="nonzero"/></clipPath><clipPath id="a31f0f6cb5"><path d="M 43.917969 0.871094 L 65.773438 6.21875 L 59.046875 33.714844 L 37.191406 28.367188 Z M 43.917969 0.871094 " clip-rule="nonzero"/></clipPath><clipPath id="5904929718"><path d="M 43.917969 0.871094 L 65.773438 6.21875 L 59.046875 33.714844 L 37.191406 28.367188 Z M 43.917969 0.871094 " clip-rule="nonzero"/></clipPath><clipPath id="59806b2d0b"><path d="M 41 6 L 65 6 L 65 26 L 41 26 Z M 41 6 " clip-rule="nonzero"/></clipPath><clipPath id="3583c6d7c3"><path d="M 43.917969 0.871094 L 65.773438 6.21875 L 59.046875 33.714844 L 37.191406 28.367188 Z M 43.917969 0.871094 " clip-rule="nonzero"/></clipPath><clipPath id="24a69b76be"><path d="M 43.917969 0.871094 L 65.773438 6.21875 L 59.046875 33.714844 L 37.191406 28.367188 Z M 43.917969 0.871094 " clip-rule="nonzero"/></clipPath><clipPath id="9545125592"><path d="M 43.917969 0.871094 L 65.773438 6.21875 L 59.046875 33.714844 L 37.191406 28.367188 Z M 43.917969 0.871094 " clip-rule="nonzero"/></clipPath><clipPath id="de3947857c"><path d="M 62.347656 5.210938 L 88 5.210938 L 88 29 L 62.347656 29 Z M 62.347656 5.210938 " clip-rule="nonzero"/></clipPath><clipPath id="52befe0fb0"><path d="M 7.484375 0.871094 L 39.417969 0.871094 L 39.417969 28.453125 L 7.484375 28.453125 Z M 7.484375 0.871094 " clip-rule="nonzero"/></clipPath></defs><g clip-path="url(#886c33076f)"><g clip-path="url(#756936ed92)"><g clip-path="url(#a31f0f6cb5)"><g clip-path="url(#5904929718)"><path fill="#000000" d="M 65.765625 6.214844 L 50.230469 6.273438 C 49.269531 6.277344 48.28125 6.605469 47.378906 7.203125 C 47.378906 7.203125 43.949219 9.308594 43.949219 9.308594 C 43.949219 9.308594 43.945312 9.308594 43.945312 9.308594 L 43.9375 9.316406 C 43.609375 9.515625 43.292969 9.75 42.988281 10.019531 C 41.917969 10.96875 41.144531 12.234375 40.816406 13.578125 L 39.53125 18.824219 L 40.273438 19.230469 L 39.285156 19.835938 L 37.195312 28.367188 L 52.730469 28.308594 C 53.597656 28.304688 54.488281 28.039062 55.316406 27.546875 C 55.316406 27.546875 55.332031 27.535156 55.332031 27.535156 C 55.386719 27.503906 55.445312 27.46875 55.5 27.433594 L 58.738281 25.429688 C 59.167969 25.199219 59.582031 24.910156 59.972656 24.5625 C 61.042969 23.613281 61.816406 22.347656 62.144531 21.003906 L 63.429688 15.757812 L 62.6875 15.355469 L 63.675781 14.746094 Z M 65.765625 6.214844 " fill-opacity="1" fill-rule="nonzero"/></g></g></g></g><g clip-path="url(#59806b2d0b)"><g clip-path="url(#3583c6d7c3)"><g clip-path="url(#24a69b76be)"><g clip-path="url(#9545125592)"><path fill="#ffffff" d="M 56.113281 12.742188 L 50.507812 11.496094 L 56.921875 15.050781 L 57.386719 13.160156 L 62.71875 16.078125 L 61.546875 20.859375 C 60.929688 23.386719 58.613281 25.441406 56.371094 25.449219 L 41.621094 25.503906 L 43.332031 18.519531 L 49.902344 22 L 50.488281 19.605469 L 56.089844 20.851562 L 49.679688 17.292969 L 49.214844 19.1875 L 43.882812 16.265625 L 45.054688 11.488281 C 45.671875 8.960938 47.988281 6.90625 50.230469 6.898438 L 64.976562 6.839844 L 63.269531 13.828125 L 56.699219 10.34375 Z M 56.113281 12.742188 " fill-opacity="1" fill-rule="nonzero"/></g></g></g></g><g clip-path="url(#de3947857c)"><path fill="#ff006b" d="M 72.472656 5.90625 C 73.292969 5.429688 74.1875 5.210938 75.070312 5.210938 C 75.953125 5.210938 76.851562 5.429688 77.667969 5.90625 C 78.199219 6.210938 78.652344 6.597656 79.027344 7.039062 L 79.039062 7.054688 C 79.054688 7.070312 79.066406 7.085938 79.078125 7.101562 C 79.257812 7.320312 79.421875 7.550781 79.566406 7.804688 L 87.082031 20.820312 C 88.507812 23.296875 87.65625 26.484375 85.179688 27.914062 C 82.707031 29.34375 79.515625 28.488281 78.085938 26.011719 L 76.835938 23.84375 C 75.785156 22.027344 74.457031 19.171875 73.085938 17.816406 C 71.625 16.375 69.617188 15.484375 67.40625 15.484375 C 66.953125 15.484375 66.511719 15.523438 66.074219 15.597656 L 70.046875 8.71875 C 70.359375 8.175781 70.660156 7.589844 71.0625 7.101562 C 71.074219 7.085938 71.085938 7.070312 71.101562 7.054688 L 71.113281 7.039062 C 71.488281 6.597656 71.945312 6.210938 72.472656 5.90625 Z M 67.40625 18.511719 C 70.199219 18.511719 72.464844 20.777344 72.464844 23.570312 C 72.464844 26.367188 70.199219 28.628906 67.40625 28.628906 C 64.613281 28.628906 62.347656 26.367188 62.347656 23.570312 C 62.347656 20.777344 64.613281 18.511719 67.40625 18.511719 Z M 67.40625 18.511719 " fill-opacity="1" fill-rule="evenodd"/></g><g clip-path="url(#52befe0fb0)"><path fill="#8445ff" d="M 25.410156 0.875 L 7.484375 0.875 L 7.484375 0.878906 C 7.484375 6.484375 12.027344 11.027344 17.632812 11.027344 L 20.789062 11.027344 L 20.789062 7.453125 L 33.644531 14.644531 L 20.789062 21.835938 L 20.789062 18.261719 L 17.632812 18.261719 C 12.027344 18.261719 7.484375 22.804688 7.484375 28.410156 L 25.542969 28.410156 C 33.144531 28.410156 39.332031 22.214844 39.308594 14.605469 C 39.289062 6.996094 33.019531 0.875 25.410156 0.875 Z M 25.410156 0.875 " fill-opacity="1" fill-rule="nonzero"/></g></svg>